<svg xmlns="http://www.w3.org/2000/svg" viewBox="0 0 239.02 58.09"><defs><style>.cls-1{fill:#ffffff;}</style></defs><title>full logo</title><g id="Слой_2" data-name="Слой 2"><g id="Layer_1" data-name="Layer 1"><path class="cls-1" d="M29,0A29,29,0,1,0,58.09,29,29.08,29.08,0,0,0,29,0Zm-.17,57.56V40.29H46.14A17.53,17.53,0,0,1,28.87,57.56Zm0-17.77V22.51A17.54,17.54,0,0,1,46.14,39.79ZM28.37,22a10.71,10.71,0,0,1,0-21.42ZM24.22.91a11.22,11.22,0,0,0,4.15,21.54V39.79H2.78v.42A28.3,28.3,0,0,1,.5,29,28.59,28.59,0,0,1,24.22.91ZM2.81,40.29H28.37V57.58A28.59,28.59,0,0,1,2.81,40.29ZM34.53,57.06a18,18,0,0,0-5.66-35V.5H29a28.55,28.55,0,0,1,5.49,56.56Z"/><rect class="cls-1" x="97.58" y="16.27" width="1.6" height="25.55"/><path class="cls-1" d="M225.44,15.47A13.58,13.58,0,1,0,239,29,13.59,13.59,0,0,0,225.44,15.47Zm0,25.55a12,12,0,1,1,12-12A12,12,0,0,1,225.44,41Z"/><path class="cls-1" d="M137.89,25.19h0a3.89,3.89,0,1,1,0-7.78v-1.6a5.49,5.49,0,1,0,0,11h0a7.09,7.09,0,1,1-7.09,7.09h-1.6a8.69,8.69,0,1,0,8.69-8.69Z"/><polygon class="cls-1" points="169.06 17.42 176.95 17.42 176.95 41.82 178.55 41.82 178.55 17.42 186.44 17.42 186.44 15.82 169.06 15.82 169.06 17.42"/></g></g></svg>