<svg xmlns="http://www.w3.org/2000/svg" viewBox="0 0 58.09 58.09"><defs><style>.cls-1{fill:#ffffff;}</style></defs><title>logo</title><g id="Слой_2" data-name="Слой 2"><g id="Layer_1" data-name="Layer 1"><path class="cls-1" d="M29,0A29,29,0,1,0,58.09,29.05,29.08,29.08,0,0,0,29,0Zm-.17,57.56V40.29H46.14A17.53,17.53,0,0,1,28.87,57.56Zm0-17.77V22.51A17.54,17.54,0,0,1,46.14,39.79ZM28.37,22a10.71,10.71,0,0,1,0-21.42ZM24.22.92a11.21,11.21,0,0,0,4.15,21.53V39.79H2.78v.42A28.25,28.25,0,0,1,.5,29.05,28.57,28.57,0,0,1,24.22.92ZM2.81,40.29H28.37V57.58A28.59,28.59,0,0,1,2.81,40.29ZM34.53,57.06a18,18,0,0,0-5.66-35V.5H29a28.55,28.55,0,0,1,5.49,56.56Z"/></g></g></svg>