<svg xmlns="http://www.w3.org/2000/svg" viewBox="0 0 141.44 27.15"><defs><style>.cls-1{fill:#ffffff;}</style></defs><title>logo text</title><g id="Слой_2" data-name="Слой 2"><g id="Layer_1" data-name="Layer 1"><rect class="cls-1" y="0.8" width="1.6" height="25.55"/><path class="cls-1" d="M127.87,0a13.58,13.58,0,1,0,13.57,13.57A13.59,13.59,0,0,0,127.87,0Zm0,25.55a12,12,0,1,1,12-12A12,12,0,0,1,127.87,25.55Z"/><path class="cls-1" d="M40.31,9.72h0a3.89,3.89,0,0,1,0-7.78V.35a5.49,5.49,0,0,0,0,11h0a7.09,7.09,0,1,1-7.09,7.08h-1.6a8.69,8.69,0,1,0,8.69-8.68Z"/><polygon class="cls-1" points="71.49 1.95 79.38 1.95 79.38 26.35 80.97 26.35 80.97 1.95 88.86 1.95 88.86 0.35 71.49 0.35 71.49 1.95"/></g></g></svg>