<svg width="330" height="312" viewBox="0 0 330 312" fill="none" xmlns="http://www.w3.org/2000/svg">
<mask id="mask0" mask-type="alpha" maskUnits="userSpaceOnUse" x="0" y="0" width="165" height="312">
<rect width="165" height="312" fill="#C4C4C4"/>
</mask>
<g mask="url(#mask0)">
<path d="M161.744 306.52C149.744 305.56 137.744 302.68 125.744 297.4C75.8238 275.8 52.7838 215.8 52.7838 148.12C52.7838 74.68 78.2238 34.84 114.224 15.64C123.824 10.36 138.224 7 146.384 5.55999V1.23999C76.7838 5.08 0.943751 60.76 0.943751 153.4C0.943751 235.48 53.7438 309.4 161.744 310.84V306.52ZM167.024 5.08C179.024 6.03998 191.024 8.91998 203.024 14.2C252.944 35.8 275.984 95.8 275.984 163.48C275.984 236.92 250.544 276.76 214.544 295.96C204.944 301.24 190.544 304.6 182.384 306.04V310.36C251.984 305.08 327.824 251.8 327.824 158.2C327.824 76.12 275.024 2.19998 167.024 0.759995V5.08Z" fill="#4B555E"/>
</g>
<mask id="mask1" mask-type="alpha" maskUnits="userSpaceOnUse" x="165" y="0" width="165" height="312">
<rect x="165" width="165" height="312" fill="#C4C4C4"/>
</mask>
<g mask="url(#mask1)">
<path d="M161.744 306.52C149.744 305.56 137.744 302.68 125.744 297.4C75.8238 275.8 52.7838 215.8 52.7838 148.12C52.7838 74.68 78.2238 34.84 114.224 15.64C123.824 10.36 138.224 7 146.384 5.55999V1.23999C76.7838 5.08 0.943751 60.76 0.943751 153.4C0.943751 235.48 53.7438 309.4 161.744 310.84V306.52ZM167.024 5.08C179.024 6.03998 191.024 8.91998 203.024 14.2C252.944 35.8 275.984 95.8 275.984 163.48C275.984 236.92 250.544 276.76 214.544 295.96C204.944 301.24 190.544 304.6 182.384 306.04V310.36C251.984 305.08 327.824 251.8 327.824 158.2C327.824 76.12 275.024 2.19998 167.024 0.759995V5.08Z" fill="#4B555E"/>
</g>
</svg>
