<svg width="32" height="32" viewBox="0 0 32 32" fill="none" xmlns="http://www.w3.org/2000/svg">
<g clip-path="url(#clip0)">
<path d="M31.89 15.5996C31.4496 14.8589 30.9653 14.1451 30.4506 13.4783C30.292 13.2728 29.9971 13.235 29.7915 13.3935C29.5861 13.5521 29.5481 13.8471 29.7067 14.0526C30.1798 14.6654 30.6261 15.3201 31.0343 15.9998C29.3211 18.8532 27.0785 21.0852 24.3677 22.6343C23.4079 23.1828 22.4005 23.6341 21.3619 23.9839C23.9288 22.2544 25.6206 19.321 25.6206 15.9998C25.6206 12.6806 23.9308 9.74859 21.3665 8.01872C23.5848 8.76853 25.6638 9.98347 27.4683 11.6222C27.6603 11.7967 27.9576 11.7823 28.132 11.5902C28.3065 11.3982 28.2922 11.1009 28.1 10.9265C24.0503 7.24854 18.6857 5.59454 13.3818 6.38822C10.7311 6.78491 8.24756 7.75622 6.00025 9.27522C3.6372 10.8724 1.65539 13.0002 0.109953 15.5998C-0.0366718 15.8465 -0.0366718 16.1531 0.110078 16.4C1.91326 19.4331 4.28719 21.8051 7.16606 23.4503C9.86325 24.9917 12.918 25.8064 16 25.8064C19.0821 25.8064 22.1368 24.9917 24.834 23.4503C27.7128 21.8051 30.0868 19.4331 31.89 16.4001C32.0367 16.1531 32.0367 15.8465 31.89 15.5996ZM7.31913 15.9998C7.31913 15.7678 7.32831 15.5336 7.34663 15.3035C7.36719 15.0448 7.17406 14.8185 6.91544 14.798C6.65682 14.7773 6.43038 14.9705 6.40988 15.2291C6.38969 15.4838 6.37944 15.7432 6.37944 15.9998C6.37944 19.3211 8.07119 22.2544 10.6381 23.9839C9.59956 23.6341 8.59212 23.1828 7.63244 22.6344C4.92132 21.0851 2.67889 18.8533 0.965701 15.9998C2.43276 13.5566 4.30332 11.5564 6.52657 10.0538C7.81906 9.18022 9.19412 8.4991 10.6362 8.01347C9.23131 8.95853 8.09931 10.2538 7.35475 11.7744C7.24069 12.0075 7.33706 12.2889 7.57013 12.403C7.80313 12.5171 8.08469 12.4207 8.19875 12.1877C8.90294 10.7494 9.99062 9.53359 11.3443 8.67166C12.7342 7.78666 14.3441 7.31885 16 7.31885C20.7867 7.31885 24.6809 11.2131 24.6809 15.9998C24.6809 20.7864 20.7867 24.6808 16 24.6808C11.2132 24.6808 7.31913 20.7865 7.31913 15.9998Z" fill="black"/>
<path d="M19.7315 14.2728C19.7315 13.0691 18.7523 12.0898 17.5485 12.0898C16.904 12.0898 16.3241 12.3708 15.9242 12.8163C15.8883 12.8152 15.8524 12.8139 15.8162 12.8139C13.8597 12.8139 12.2681 14.4056 12.2681 16.362C12.2681 18.3184 13.8597 19.9102 15.8161 19.9102C17.7725 19.9102 19.3642 18.3185 19.3642 16.3621C19.3642 16.1001 19.3349 15.8451 19.2807 15.5993C19.5631 15.2313 19.7315 14.7715 19.7315 14.2728ZM15.816 18.9704C14.3778 18.9704 13.2077 17.8003 13.2077 16.3621C13.2077 15.0579 14.1698 13.9743 15.4214 13.7835C15.3852 13.941 15.3654 14.1046 15.3654 14.2729C15.3654 15.4766 16.3447 16.4559 17.5485 16.4559C17.8593 16.4559 18.1548 16.3901 18.4227 16.2726C18.4237 16.3023 18.4244 16.3321 18.4244 16.3621C18.4245 17.8003 17.2543 18.9704 15.816 18.9704ZM17.5485 15.5161C16.8629 15.5161 16.3052 14.9584 16.3052 14.2728C16.3052 13.5873 16.8629 13.0296 17.5485 13.0296C18.234 13.0296 18.7917 13.5873 18.7917 14.2728C18.7918 14.9583 18.234 15.5161 17.5485 15.5161Z" fill="black"/>
<path d="M16.0001 0.0708008C15.7406 0.0708008 15.5303 0.281175 15.5303 0.540675V2.26511C15.5303 2.52461 15.7406 2.73498 16.0001 2.73498C16.2597 2.73498 16.47 2.52461 16.47 2.26511V0.540675C16.47 0.281175 16.2597 0.0708008 16.0001 0.0708008Z" fill="black"/>
<path d="M16.0001 29.2651C15.7406 29.2651 15.5303 29.4755 15.5303 29.735V31.4594C15.5303 31.7189 15.7406 31.9293 16.0001 31.9293C16.2597 31.9293 16.47 31.7189 16.47 31.4594V29.735C16.47 29.4754 16.2597 29.2651 16.0001 29.2651Z" fill="black"/>
<path d="M9.53987 3.87049L8.67762 2.37712C8.54781 2.15237 8.26043 2.07537 8.03581 2.20512C7.81106 2.33487 7.73406 2.62224 7.86381 2.84693L8.72606 4.34031C8.81312 4.49106 8.971 4.57531 9.13344 4.57531C9.21312 4.57531 9.294 4.55499 9.36794 4.51231C9.59262 4.38262 9.66962 4.09524 9.53987 3.87049Z" fill="black"/>
<path d="M24.1365 29.1527L23.2743 27.6594C23.1445 27.4345 22.8571 27.3576 22.6325 27.4874C22.4077 27.6171 22.3307 27.9045 22.4605 28.1292L23.3227 29.6225C23.4098 29.7733 23.5677 29.8575 23.7301 29.8575C23.8098 29.8575 23.8907 29.8372 23.9646 29.7945C24.1893 29.6648 24.2663 29.3774 24.1365 29.1527Z" fill="black"/>
<path d="M4.34036 8.72609L2.84693 7.86384C2.62199 7.73402 2.33474 7.81109 2.20512 8.03584C2.07537 8.26059 2.15237 8.54797 2.37712 8.67765L3.87055 9.53991C3.94461 9.58266 4.02536 9.60291 4.10505 9.60291C4.26743 9.60291 4.42536 9.5186 4.51242 9.36791C4.64211 9.14322 4.56511 8.85584 4.34036 8.72609Z" fill="black"/>
<path d="M29.6231 23.3227L28.1296 22.4605C27.9047 22.3307 27.6175 22.4078 27.4878 22.6325C27.3581 22.8573 27.4351 23.1446 27.6598 23.2743L29.1533 24.1366C29.2273 24.1793 29.3081 24.1996 29.3878 24.1996C29.5501 24.1996 29.7081 24.1153 29.7951 23.9646C29.9248 23.7398 29.8478 23.4525 29.6231 23.3227Z" fill="black"/>
<path d="M4.51237 22.632C4.38268 22.4072 4.09512 22.3303 3.87056 22.46L2.37712 23.3223C2.15237 23.452 2.07537 23.7394 2.20512 23.9641C2.29212 24.1148 2.45006 24.1991 2.61249 24.1991C2.69218 24.1991 2.77306 24.1788 2.84699 24.1361L4.34043 23.2738C4.56512 23.1441 4.64212 22.8568 4.51237 22.632Z" fill="black"/>
<path d="M29.7951 8.03578C29.6654 7.81103 29.3778 7.73409 29.1532 7.86378L27.6598 8.72597C27.4351 8.85572 27.3581 9.1431 27.4878 9.36779C27.5747 9.5186 27.7327 9.60285 27.8952 9.60285C27.9749 9.60285 28.0557 9.58254 28.1297 9.53985L29.6231 8.6776C29.8478 8.54791 29.9248 8.26053 29.7951 8.03578Z" fill="black"/>
<path d="M9.36787 27.4879C9.143 27.358 8.85569 27.4351 8.72606 27.6599L7.86381 29.1532C7.73406 29.378 7.81106 29.6653 8.03581 29.795C8.10987 29.8378 8.19062 29.858 8.27031 29.858C8.43269 29.858 8.59062 29.7738 8.67769 29.623L9.53994 28.1297C9.66963 27.905 9.59256 27.6176 9.36787 27.4879Z" fill="black"/>
<path d="M23.9641 2.20516C23.7392 2.07535 23.4519 2.15235 23.3223 2.37716L22.46 3.87054C22.3302 4.09529 22.4073 4.38272 22.632 4.51235C22.7061 4.5551 22.7869 4.57535 22.8665 4.57535C23.0289 4.57535 23.1869 4.49104 23.2739 4.34035L24.1362 2.84697C24.2658 2.62228 24.1888 2.33491 23.9641 2.20516Z" fill="black"/>
</g>
<defs>
<clipPath id="clip0">
<rect width="32" height="32" fill="white"/>
</clipPath>
</defs>
</svg>
