<svg width="29" height="28" viewBox="0 0 29 28" fill="none" xmlns="http://www.w3.org/2000/svg">
<path d="M27.2199 14.0495C27.2199 16.5772 26.4704 19.0481 25.0661 21.1497C23.6618 23.2514 21.6658 24.8894 19.3306 25.8567C16.9954 26.824 14.4257 27.0771 11.9467 26.584C9.46759 26.0908 7.1904 24.8737 5.40309 23.0864C3.61577 21.299 2.3986 19.0219 1.90548 16.5428C1.41236 14.0637 1.66544 11.4941 2.63273 9.15884C3.60002 6.8236 5.23807 4.82763 7.33973 3.42335C9.44139 2.01906 11.9123 1.26953 14.4399 1.26953C17.8294 1.26953 21.08 2.61599 23.4767 5.01271C25.8735 7.40942 27.2199 10.6601 27.2199 14.0495Z" stroke="white" stroke-width="1.6" stroke-miterlimit="10"/>
</svg>
