<svg width="18" height="28" viewBox="0 0 18 28" fill="none" xmlns="http://www.w3.org/2000/svg">
<path d="M8.89001 11C10.4509 11 11.9768 11.463 13.2745 12.3304C14.5722 13.1978 15.5835 14.4307 16.1804 15.8729C16.7772 17.3152 16.9329 18.9022 16.6277 20.4329C16.3224 21.9637 15.57 23.3696 14.4655 24.4726C13.3611 25.5756 11.9543 26.3263 10.4231 26.6296C8.89196 26.9329 7.30523 26.7752 5.8637 26.1765C4.42217 25.5778 3.19061 24.565 2.32485 23.2662C1.45909 21.9674 0.998028 20.4409 1.00001 18.88" stroke="white" stroke-width="1.6" stroke-miterlimit="10"/>
<path d="M8.88995 10.9991C7.64609 10.9991 6.45317 10.505 5.57362 9.62547C4.69408 8.74593 4.19995 7.553 4.19995 6.30914C4.19995 5.06527 4.69408 3.87235 5.57362 2.99281C6.45317 2.11326 7.64609 1.61914 8.88995 1.61914" stroke="white" stroke-width="1.6" stroke-miterlimit="10"/>
</svg>
