<svg width="32" height="32" viewBox="0 0 32 32" fill="none" xmlns="http://www.w3.org/2000/svg">
<path d="M18.0949 19.216C17.7886 19.2349 17.4841 19.2272 17.1712 19.1866C17.1492 19.1837 17.1281 19.1796 17.107 19.1753C17.3495 19.9514 17.4802 20.7764 17.4802 21.6313C17.4802 26.1809 13.7789 29.8822 9.22937 29.8822C8.45793 29.8822 7.69431 29.7759 6.95987 29.5662C6.71093 29.495 6.45149 29.6394 6.38043 29.8883C6.30937 30.1372 6.45356 30.3967 6.70249 30.4677C7.52068 30.7012 8.37081 30.8197 9.22931 30.8197C14.2958 30.8197 18.4177 26.6978 18.4177 21.6313C18.4177 20.7957 18.3049 19.986 18.0949 19.216Z" fill="black"/>
<path d="M24.8984 12.6785C25.0922 11.9357 25.1957 11.1567 25.1957 10.354C25.1957 5.27453 21.0632 1.14209 15.9837 1.14209C14.5691 1.14209 13.2118 1.45434 11.9494 2.07028C11.7162 2.18409 11.6193 2.46547 11.7331 2.69872C11.8469 2.93197 12.1283 3.02878 12.3616 2.91497C13.4944 2.36228 14.7131 2.08203 15.9837 2.08203C20.5449 2.08203 24.2558 5.79284 24.2558 10.3541C24.2558 11.0995 24.1561 11.822 23.9703 12.5095C23.5796 12.4595 23.1834 12.434 22.788 12.434C22.6499 12.434 22.5123 12.4373 22.3752 12.4433C22.3671 12.4429 22.3591 12.4421 22.3507 12.4421C22.3266 12.4421 22.3029 12.4445 22.2797 12.448C20.4773 12.5452 18.7691 13.1588 17.3116 14.2379C16.8312 14.5936 16.3912 14.9901 15.9944 15.4217C15.5976 14.9901 15.1577 14.5936 14.6773 14.2379C13.2113 13.1525 11.4915 12.5381 9.67744 12.4465C9.6575 12.4439 9.63731 12.4421 9.61662 12.4421C9.61194 12.4421 9.60744 12.4427 9.60281 12.4428C9.46931 12.4371 9.33537 12.434 9.20094 12.434C8.79844 12.434 8.39531 12.4602 7.99775 12.5119C7.81156 11.8237 7.71163 11.1003 7.71163 10.354C7.71163 8.32222 8.45525 6.36865 9.8055 4.85328C9.97819 4.65947 9.96106 4.36247 9.76725 4.18978C9.5735 4.01715 9.27637 4.03422 9.10375 4.22803C7.59994 5.91584 6.77175 8.09147 6.77175 10.3541C6.77175 11.1595 6.876 11.941 7.07106 12.6861C3.02075 13.6538 0 17.3033 0 21.6459C0 24.4874 1.28175 27.1265 3.51656 28.8867C3.7205 29.0473 4.01594 29.0122 4.17656 28.8083C4.33719 28.6044 4.30206 28.3089 4.09812 28.1483C2.09106 26.5676 0.939875 24.1975 0.939875 21.6459C0.939875 17.7223 3.68587 14.4288 7.35681 13.5843C8.42688 16.4327 10.8687 18.615 13.8737 19.3218C13.6798 20.0645 13.5761 20.8433 13.5761 21.6459C13.5761 26.7254 17.7086 30.8578 22.7881 30.8578C27.8676 30.8578 32 26.7253 32 21.6459C32 17.2924 28.9641 13.6352 24.8984 12.6785ZM9.14669 15.0052C8.81069 14.5129 8.52656 13.9827 8.30194 13.4222C8.58181 13.392 8.86431 13.3763 9.14669 13.3745V15.0052ZM11.1032 17.0285C10.7409 16.7628 10.4009 16.4685 10.0866 16.1487V13.4217C10.4304 13.458 10.7697 13.5151 11.1032 13.5933V17.0285ZM13.0875 18.1024C12.7269 17.9672 12.3779 17.8079 12.0431 17.6258V13.8743C12.4009 14.0052 12.7495 14.1617 13.0875 14.3423V18.1024ZM22.8207 13.3742C23.1034 13.3753 23.3861 13.3907 23.6664 13.4202C23.4416 13.9813 23.1571 14.5123 22.8207 15.0052V13.3742ZM20.8642 13.5982C21.1976 13.519 21.537 13.4612 21.8808 13.4239V16.1487C21.5665 16.4685 21.2265 16.7629 20.8642 17.0286V13.5982ZM18.8799 14.3541C19.2179 14.1722 19.5664 14.014 19.9243 13.8819V17.6257C19.5894 17.8079 19.2405 17.9672 18.8799 18.1024V14.3541ZM17.8709 14.9932C17.8937 14.9763 17.9171 14.9608 17.94 14.9442V18.3918C17.906 18.4 17.8721 18.4086 17.8379 18.4165C17.5363 17.61 17.122 16.8458 16.6045 16.1498C16.9824 15.726 17.4052 15.338 17.8709 14.9932ZM17.3829 20.3617H14.6169C14.6632 20.0658 14.7253 19.7752 14.8022 19.4905C15.1892 19.5402 15.5835 19.566 15.9837 19.566C16.3946 19.566 16.7992 19.5385 17.196 19.4861C17.2739 19.774 17.3364 20.0662 17.3829 20.3617ZM15.9946 16.9227C16.3518 17.4359 16.6503 17.9896 16.8843 18.5769C16.5884 18.6091 16.288 18.6261 15.9838 18.6261C15.6866 18.6261 15.3931 18.61 15.1039 18.5793C15.3379 17.9912 15.6367 17.4366 15.9946 16.9227ZM14.0274 18.3917V14.9288C14.0575 14.9505 14.0881 14.9711 14.118 14.9932C14.5856 15.3394 15.0099 15.7292 15.389 16.1549C14.8758 16.8451 14.4609 17.6058 14.1567 18.4223C14.1134 18.4125 14.0704 18.4022 14.0274 18.3917ZM14.5159 21.6459C14.5159 21.53 14.5191 21.415 14.5238 21.3002C14.5327 21.3007 14.5415 21.3016 14.5505 21.3016H17.4766C17.4814 21.4162 17.484 21.531 17.484 21.6459C17.484 21.8708 17.4744 22.0951 17.4561 22.3182H14.5434C14.5255 22.0964 14.5159 21.8722 14.5159 21.6459ZM14.6742 23.2581H17.3243C17.2537 23.6123 17.1601 23.9612 17.0444 24.3025H14.9536C14.8384 23.9637 14.745 23.6149 14.6742 23.2581ZM16.0019 26.3705C15.7529 26.0138 15.5309 25.6369 15.3396 25.2424H16.6604C16.4716 25.6343 16.2514 26.0117 16.0019 26.3705ZM22.788 29.9179C20.3328 29.9179 18.1243 28.8423 16.6081 27.138C17.7816 25.5577 18.4239 23.6226 18.4239 21.6459C18.4239 20.8549 18.3211 20.0714 18.123 19.3147C21.1167 18.6 23.5478 16.42 24.6131 13.5778C28.299 14.4112 31.0601 17.7117 31.0601 21.6459C31.0601 26.2072 27.3493 29.9179 22.788 29.9179Z" fill="black"/>
</svg>
