<svg width="11" height="16" viewBox="0 0 11 16" fill="none" xmlns="http://www.w3.org/2000/svg">
<path fill-rule="evenodd" clip-rule="evenodd" d="M4.06485 2.85831C4.36905 2.5541 4.78164 2.3832 5.21185 2.3832V0.783203C4.3573 0.783203 3.53774 1.12267 2.93348 1.72694C2.32922 2.3312 1.98975 3.15075 1.98975 4.00531C1.98975 4.85986 2.32922 5.67942 2.93348 6.28368C3.53774 6.88794 4.3573 7.22741 5.21185 7.22741V5.62741C4.78164 5.62741 4.36905 5.45651 4.06485 5.15231C3.76065 4.8481 3.58975 4.43551 3.58975 4.00531C3.58975 3.5751 3.76065 3.16251 4.06485 2.85831ZM5.21187 7.22744C5.85972 7.22744 6.49302 7.41961 7.03164 7.77962C7.57025 8.13963 7.98997 8.65132 8.2377 9.24994C8.48544 9.84855 8.55004 10.5072 8.42335 11.1425C8.29666 11.7779 7.98436 12.3614 7.52597 12.8192C7.06758 13.277 6.48369 13.5886 5.84819 13.7144C5.21268 13.8403 4.55412 13.7749 3.95582 13.5264C3.35751 13.2779 2.84636 12.8575 2.48703 12.3185C2.1277 11.7794 1.93634 11.1459 1.93716 10.498L0.337162 10.496C0.33594 11.4604 0.6208 12.4034 1.1557 13.2059C1.69059 14.0084 2.45149 14.6341 3.34212 15.004C4.23275 15.3739 5.21308 15.4713 6.15909 15.284C7.1051 15.0966 7.97427 14.6328 8.65663 13.9513C9.33898 13.2698 9.80387 12.4012 9.99246 11.4554C10.1811 10.5097 10.0849 9.52921 9.71611 8.63811C9.34733 7.74702 8.72254 6.98532 7.92076 6.44941C7.11898 5.9135 6.17626 5.62744 5.21187 5.62744L5.21187 7.22744Z" fill="white"/>
</svg>
