<svg width="97" height="11" viewBox="0 0 97 11" fill="none" xmlns="http://www.w3.org/2000/svg">
<path d="M3.00989 1.452H1.46824V2.52267C1.46824 3.15333 1.13054 3.63733 0.36706 3.63733H0V5.148H1.32142V8.74133C1.32142 10.076 2.14363 10.868 3.46504 10.868C4.0817 10.868 4.40472 10.7507 4.50749 10.7067V9.29867C4.43408 9.31333 4.15512 9.35733 3.9202 9.35733C3.28885 9.35733 3.00989 9.09333 3.00989 8.46267V5.148H4.49281V3.63733H3.00989V1.452Z" fill="white"/>
<path d="M7.74519 6.58533C7.77455 5.676 8.28844 4.972 9.22811 4.972C10.2999 4.972 10.6964 5.676 10.6964 6.556V10.78H12.3995V6.26267C12.3995 4.69333 11.5479 3.432 9.78604 3.432C9.03724 3.432 8.22971 3.696 7.74519 4.32667V0.161333H6.04203V10.78H7.74519V6.58533Z" fill="white"/>
<path d="M15.6622 6.424C15.7209 5.66133 16.3376 4.84 17.4094 4.84C18.584 4.84 19.1419 5.588 19.1713 6.424H15.6622ZM19.3622 8.28667C19.1273 8.99067 18.5987 9.53333 17.5709 9.53333C16.5138 9.53333 15.6622 8.756 15.6182 7.67067H20.8451C20.8598 7.64133 20.8891 7.40667 20.8891 7.128C20.8891 4.86933 19.5971 3.41733 17.3947 3.41733C15.5888 3.41733 13.915 4.91333 13.915 7.172C13.915 9.592 15.6328 11 17.5709 11C19.2888 11 20.4193 9.988 20.801 8.74133L19.3622 8.28667Z" fill="white"/>
<path d="M25.4091 0.0879998C23.9409 0.0879998 22.9131 1.056 22.9131 2.65467V3.63733H21.6651V5.11867H22.9131V10.78H24.631V5.11867H27.7143V10.78H29.3881V3.63733H24.631V2.69867C24.631 1.81867 25.2476 1.61333 25.6881 1.61333C26.0111 1.61333 26.202 1.65733 26.3048 1.68667V0.234666C26.1873 0.176 25.8349 0.0879998 25.4091 0.0879998ZM27.45 1.11467C27.45 1.716 27.9345 2.21467 28.5512 2.21467C29.1678 2.21467 29.667 1.716 29.667 1.11467C29.667 0.498667 29.1678 0 28.5512 0C27.9345 0 27.45 0.498667 27.45 1.11467Z" fill="white"/>
<path d="M35.7916 3.59333C35.7182 3.57867 35.542 3.54933 35.3365 3.54933C34.3968 3.54933 33.604 4.004 33.2663 4.78133V3.63733H31.6072V10.78H33.3103V7.37733C33.3103 6.04267 33.9123 5.28 35.2337 5.28C35.4099 5.28 35.6008 5.29467 35.7916 5.324V3.59333Z" fill="white"/>
<path d="M36.5964 8.844C36.6845 9.65067 37.4774 11 39.5476 11C41.3682 11 42.2491 9.79733 42.2491 8.712C42.2491 7.656 41.5444 6.83467 40.1936 6.54133L39.1071 6.32133C38.6666 6.23333 38.3877 5.95467 38.3877 5.57333C38.3877 5.13333 38.8135 4.752 39.4154 4.752C40.3698 4.752 40.6781 5.412 40.7369 5.82267L42.1757 5.412C42.0583 4.708 41.4123 3.41733 39.4154 3.41733C37.9325 3.41733 36.7873 4.47333 36.7873 5.72C36.7873 6.70267 37.448 7.524 38.7107 7.80267L39.7678 8.03733C40.3404 8.15467 40.6047 8.448 40.6047 8.82933C40.6047 9.26933 40.2377 9.65067 39.5329 9.65067C38.6226 9.65067 38.1381 9.07867 38.0793 8.43333L36.5964 8.844Z" fill="white"/>
<path d="M46.0964 1.452H44.5547V2.52267C44.5547 3.15333 44.217 3.63733 43.4536 3.63733H43.0865V5.148H44.4079V8.74133C44.4079 10.076 45.2301 10.868 46.5515 10.868C47.1682 10.868 47.4912 10.7507 47.594 10.7067V9.29867C47.5206 9.31333 47.2416 9.35733 47.0067 9.35733C46.3754 9.35733 46.0964 9.09333 46.0964 8.46267V5.148H47.5793V3.63733H46.0964V1.452Z" fill="white"/>
<path d="M51.4589 1.452H49.9173V2.52267C49.9173 3.15333 49.5796 3.63733 48.8161 3.63733H48.449V5.148H49.7704V8.74133C49.7704 10.076 50.5926 10.868 51.9141 10.868C52.5307 10.868 52.8537 10.7507 52.9565 10.7067V9.29867C52.8831 9.31333 52.6041 9.35733 52.3692 9.35733C51.7379 9.35733 51.4589 9.09333 51.4589 8.46267V5.148H52.9418V3.63733H51.4589V1.452Z" fill="white"/>
<path d="M56.1942 6.58533C56.2236 5.676 56.7374 4.972 57.6771 4.972C58.7489 4.972 59.1454 5.676 59.1454 6.556V10.78H60.8485V6.26267C60.8485 4.69333 59.9969 3.432 58.2351 3.432C57.4863 3.432 56.6787 3.696 56.1942 4.32667V0.161333H54.491V10.78H56.1942V6.58533Z" fill="white"/>
<path d="M64.1112 6.424C64.17 5.66133 64.7866 4.84 65.8584 4.84C67.033 4.84 67.591 5.588 67.6203 6.424H64.1112ZM67.8112 8.28667C67.5763 8.99067 67.0477 9.53333 66.0199 9.53333C64.9628 9.53333 64.1112 8.756 64.0672 7.67067H69.2941C69.3088 7.64133 69.3382 7.40667 69.3382 7.128C69.3382 4.86933 68.0461 3.41733 65.8437 3.41733C64.0378 3.41733 62.364 4.91333 62.364 7.172C62.364 9.592 64.0819 11 66.0199 11C67.7378 11 68.8683 9.988 69.2501 8.74133L67.8112 8.28667Z" fill="white"/>
<path d="M72.6689 10.78V0.161333H70.9657V10.78H72.6689Z" fill="white"/>
<path d="M74.3966 8.844C74.3966 9.97333 75.3216 11 76.8192 11C77.9791 11 78.6838 10.4133 79.0215 9.87067C79.0215 10.4427 79.0803 10.736 79.0949 10.78H80.6806C80.666 10.7067 80.5925 10.2813 80.5925 9.636V6.08667C80.5925 4.664 79.7557 3.41733 77.5533 3.41733C75.7914 3.41733 74.6755 4.51733 74.5434 5.74933L76.0997 6.10133C76.1731 5.38267 76.6723 4.81067 77.568 4.81067C78.5076 4.81067 78.9188 5.29467 78.9188 5.896C78.9188 6.14533 78.8013 6.35067 78.3902 6.40933L76.5549 6.688C75.3363 6.864 74.3966 7.568 74.3966 8.844ZM77.1422 9.66533C76.4668 9.66533 76.0997 9.22533 76.0997 8.74133C76.0997 8.15467 76.5255 7.86133 77.0541 7.77333L78.9188 7.49467V7.81733C78.9188 9.21067 78.0965 9.66533 77.1422 9.66533Z" fill="white"/>
<path d="M82.0201 8.844C82.1082 9.65067 82.901 11 84.9712 11C86.7918 11 87.6728 9.79733 87.6728 8.712C87.6728 7.656 86.968 6.83467 85.6172 6.54133L84.5308 6.32133C84.0903 6.23333 83.8113 5.95467 83.8113 5.57333C83.8113 5.13333 84.2371 4.752 84.8391 4.752C85.7934 4.752 86.1018 5.412 86.1605 5.82267L87.5994 5.412C87.4819 4.708 86.8359 3.41733 84.8391 3.41733C83.3562 3.41733 82.2109 4.47333 82.2109 5.72C82.2109 6.70267 82.8716 7.524 84.1343 7.80267L85.1915 8.03733C85.7641 8.15467 86.0284 8.448 86.0284 8.82933C86.0284 9.26933 85.6613 9.65067 84.9565 9.65067C84.0462 9.65067 83.5617 9.07867 83.503 8.43333L82.0201 8.844Z" fill="white"/>
<path d="M91.52 1.452H89.9784V2.52267C89.9784 3.15333 89.6407 3.63733 88.8772 3.63733H88.5101V5.148H89.8316V8.74133C89.8316 10.076 90.6538 10.868 91.9752 10.868C92.5918 10.868 92.9149 10.7507 93.0176 10.7067V9.29867C92.9442 9.31333 92.6653 9.35733 92.4303 9.35733C91.799 9.35733 91.52 9.09333 91.52 8.46267V5.148H93.003V3.63733H91.52V1.452Z" fill="white"/>
<path d="M94.6068 9.68C94.6068 10.34 95.1353 10.868 95.7961 10.868C96.4568 10.868 97 10.34 97 9.68C97 9.02 96.4568 8.47733 95.7961 8.47733C95.1353 8.47733 94.6068 9.02 94.6068 9.68Z" fill="white"/>
</svg>
