<svg width="32" height="32" viewBox="0 0 32 32" fill="none" xmlns="http://www.w3.org/2000/svg">
<g clip-path="url(#clip0)">
<path d="M29.5326 22.9617L29.0507 22.4799L28.8461 20.2844C28.8461 20.2842 28.846 20.284 28.846 20.2839C28.8441 20.2639 28.8406 20.2442 28.8361 20.2245C28.8351 20.22 28.834 20.2157 28.8329 20.2112C28.8281 20.1928 28.8226 20.1745 28.8156 20.1567C28.8153 20.156 28.8151 20.1553 28.8148 20.1546C28.8074 20.1361 28.7986 20.1181 28.7887 20.1004C28.7867 20.0967 28.7845 20.0932 28.7824 20.0896C28.7741 20.0756 28.7649 20.0619 28.755 20.0487C28.7525 20.0454 28.7502 20.0419 28.7476 20.0387C28.7363 20.0244 28.7244 20.0104 28.7112 19.9972L23.9466 15.2326C23.7641 15.0502 23.4681 15.0502 23.2856 15.2326C23.103 15.4152 23.103 15.7111 23.2856 15.8937L27.7197 20.3278L26.2376 21.8099L11.6511 7.22342L13.1332 5.7413L20.8396 13.4477C21.0221 13.6301 21.3181 13.6301 21.5006 13.4477C21.6831 13.2651 21.6831 12.9692 21.5006 12.7866L13.4637 4.7498L12.1242 3.4103L11.4022 2.6883C10.9116 2.19767 10.1131 2.19761 9.62243 2.68836L8.59812 3.71261C8.36043 3.9503 8.22949 4.26636 8.22949 4.60248C8.22949 4.93867 8.36037 5.25473 8.59812 5.49242L9.26418 6.15848C9.27931 6.17986 9.29593 6.20048 9.31505 6.21961L10.6546 7.55911C10.6735 7.57805 10.6941 7.5948 10.7156 7.60998L25.9071 22.8015C25.92 22.8144 25.9338 22.8262 25.948 22.8374C25.9516 22.8402 25.9554 22.8428 25.9591 22.8455C25.9717 22.855 25.9848 22.8637 25.9982 22.8717C26.0023 22.8742 26.0062 22.8767 26.0104 22.879C26.0272 22.8884 26.0446 22.8969 26.0624 22.904C26.0657 22.9054 26.0692 22.9064 26.0725 22.9076C26.0879 22.9134 26.1035 22.9184 26.1194 22.9225C26.1245 22.9239 26.1296 22.9252 26.1347 22.9264C26.1539 22.9307 26.1734 22.9342 26.1931 22.9361C26.1935 22.9361 26.1939 22.9362 26.1942 22.9363L28.3897 23.1409L28.8716 23.6228C28.9628 23.714 29.0824 23.7597 29.2021 23.7597C29.3217 23.7597 29.4413 23.714 29.5326 23.6228C29.7151 23.4402 29.7151 23.1444 29.5326 22.9617ZM9.25912 4.83136C9.19799 4.77023 9.1643 4.68892 9.1643 4.60248C9.1643 4.51605 9.19793 4.43473 9.25912 4.37355L10.2834 3.3493C10.3466 3.28617 10.4294 3.25461 10.5124 3.25461C10.5952 3.25461 10.6782 3.28617 10.7413 3.3493L11.1328 3.7408L9.65068 5.22292L9.25912 4.83136ZM10.3066 5.88905L10.3337 5.86186L11.7937 4.40186L12.4722 5.08036L10.9851 6.56755L10.3066 5.88905ZM27.2717 22.0979L28.0077 21.3619L28.0833 22.1735L27.2717 22.0979Z" fill="black"/>
<path d="M31.6516 30.662L1.46298 0.232507C1.23804 0.00588198 0.901918 -0.0620555 0.606668 0.059632C0.311356 0.181257 0.120605 0.466194 0.120605 0.785507V31.2149C0.120605 31.6478 0.472793 32 0.905668 32H31.0943C31.4123 32 31.6968 31.8103 31.819 31.5168C31.9413 31.2233 31.8756 30.8877 31.6516 30.662ZM24.5369 31.0653V31.0652V30.1039C24.5369 29.8458 24.3277 29.6366 24.0695 29.6366C23.8114 29.6366 23.6022 29.8458 23.6022 30.1039V31.0652H20.6135V30.1039C20.6135 29.8458 20.4042 29.6366 20.1461 29.6366C19.888 29.6366 19.6787 29.8458 19.6787 30.1039V31.0652H16.69V30.1039C16.69 29.8458 16.4807 29.6366 16.2226 29.6366C15.9645 29.6366 15.7552 29.8458 15.7552 30.1039V31.0652H12.7665V30.1039C12.7665 29.8458 12.5572 29.6366 12.2991 29.6366C12.041 29.6366 11.8317 29.8458 11.8317 30.1039V31.0652H8.84298V30.1039C8.84298 29.8458 8.63373 29.6366 8.37561 29.6366C8.11748 29.6366 7.90823 29.8458 7.90823 30.1039V31.0652H4.91948V30.1039C4.91948 29.8458 4.71023 29.6366 4.45211 29.6366C4.19398 29.6366 3.98473 29.8458 3.98473 30.1039V31.0652H1.05542V1.14901L30.7349 31.0653H24.5369Z" fill="black"/>
<path d="M19.4291 25.5504L6.15048 12.1661C5.92561 11.9395 5.58954 11.8715 5.29417 11.9932C4.99892 12.1149 4.80811 12.3998 4.80811 12.7192V26.1033C4.80811 26.5362 5.16029 26.8884 5.59317 26.8884H7.49348C7.75161 26.8884 7.96086 26.6791 7.96086 26.421C7.96086 26.1629 7.75161 25.9536 7.49348 25.9536H5.74292V13.0825L18.5124 25.9535H10.7652C10.5071 25.9535 10.2979 26.1628 10.2979 26.4209C10.2979 26.679 10.5071 26.8883 10.7652 26.8883H18.8718C19.1897 26.8883 19.4742 26.6987 19.5965 26.4051C19.7187 26.1116 19.653 25.776 19.4291 25.5504Z" fill="black"/>
</g>
<defs>
<clipPath id="clip0">
<rect width="32" height="32" fill="white"/>
</clipPath>
</defs>
</svg>
