<svg width="161" height="36" viewBox="0 0 161 36" fill="none" xmlns="http://www.w3.org/2000/svg">
<path d="M0.76 26.33V33H2.06V27.45H4.74V33H6.04V26.33H0.76ZM13.2569 26.33H9.55688V33H13.2569V31.88H10.8569V30.06H13.1569V28.94H10.8569V27.45H13.2569V26.33ZM16.5178 26.33V33H17.8178V30.53H18.6578C19.4278 30.53 19.9778 30.31 20.3478 29.94C20.8578 29.43 20.8978 28.71 20.8978 28.45C20.8978 27.97 20.7578 27.32 20.2178 26.84C19.7278 26.41 19.2078 26.33 18.4578 26.33H16.5178ZM17.8178 27.45H18.2678C18.5778 27.45 18.9178 27.47 19.1878 27.66C19.3778 27.8 19.5578 28.05 19.5578 28.42C19.5578 28.71 19.4378 29.01 19.1978 29.2C18.9178 29.41 18.5978 29.41 18.3478 29.41H17.8178V27.45ZM27.5596 26.33H23.8596V33H27.5596V31.88H25.1596V30.06H27.4596V28.94H25.1596V27.45H27.5596V26.33ZM30.8205 26.33V33H31.7405L35.4005 28.54V33H36.7005V26.33H35.7805L32.1205 30.77V26.33H30.8205ZM31.9605 24.56C32.2205 25.24 32.8405 25.68 33.7605 25.68C34.6805 25.68 35.3005 25.24 35.5605 24.56L34.6605 24.2C34.4505 24.76 33.8905 24.78 33.7605 24.78C33.6305 24.78 33.0705 24.76 32.8605 24.2L31.9605 24.56ZM43.8229 27.45V26.33H39.5229V27.45H41.0229V33H42.3229V27.45H43.8229ZM46.6467 26.33V33H47.5667L51.2267 28.54V33H52.5267V26.33H51.6067L47.9467 30.77V26.33H46.6467ZM60.383 26.33V33H62.623C63.203 33 63.813 32.9 64.313 32.46C64.773 32.05 64.883 31.5 64.883 31.11C64.883 30.76 64.803 30.24 64.403 29.86C64.233 29.7 63.973 29.51 63.533 29.44C63.713 29.34 64.283 28.99 64.283 28.13C64.283 27.57 64.053 27.05 63.663 26.75C63.123 26.33 62.403 26.33 62.033 26.33H60.383ZM61.683 27.39H62.063C62.593 27.39 63.063 27.62 63.063 28.23C63.063 29.08 62.253 29.1 62.053 29.1H61.683V27.39ZM61.683 30.1H62.163C62.443 30.1 62.773 30.1 63.053 30.23C63.473 30.42 63.543 30.78 63.543 30.99C63.543 31.25 63.453 31.57 63.133 31.76C62.843 31.93 62.483 31.94 62.243 31.94H61.683V30.1ZM72.4202 26.33V33H73.7202V30.53H74.5602C75.3302 30.53 75.8802 30.31 76.2502 29.94C76.7602 29.43 76.8002 28.71 76.8002 28.45C76.8002 27.97 76.6602 27.32 76.1202 26.84C75.6302 26.41 75.1102 26.33 74.3602 26.33H72.4202ZM73.7202 27.45H74.1702C74.4802 27.45 74.8202 27.47 75.0902 27.66C75.2802 27.8 75.4602 28.05 75.4602 28.42C75.4602 28.71 75.3402 29.01 75.1002 29.2C74.8202 29.41 74.5002 29.41 74.2502 29.41H73.7202V27.45ZM83.8723 33H85.2723L82.4823 26.33H81.4623L78.5923 33H80.0023L80.5923 31.6H83.2823L83.8723 33ZM81.0023 30.54L81.9523 28.14L82.9023 30.54H81.0023ZM88.6562 27.85C89.0862 27.38 89.6762 27.32 89.9962 27.32C90.6262 27.32 90.9462 27.61 90.9462 28.09C90.9462 28.63 90.5062 28.94 89.8362 28.94H89.2362V30.06H89.8362C90.3762 30.06 91.2962 30.15 91.2962 31.08C91.2962 31.58 90.9162 32.07 90.0162 32.07C89.3862 32.07 88.6462 31.79 88.3262 31.08L87.4762 31.89C87.9562 32.67 88.8162 33.15 89.9862 33.15C91.5262 33.15 92.6362 32.32 92.6362 31.05C92.6362 30.24 92.2162 29.54 91.3962 29.33C91.9362 29.03 92.2162 28.5 92.2162 27.92C92.2162 26.87 91.3762 26.18 90.0262 26.18C89.1862 26.18 88.5562 26.44 87.9762 26.96L88.6562 27.85ZM96.4723 26.33V29.23C96.4723 30.15 96.3623 30.65 96.2323 30.98C96.0323 31.48 95.6523 31.9 95.1723 31.88V34.5H96.3723V33H100.472V34.5H101.672V31.88H100.972V26.33H96.4723ZM97.7323 27.45H99.6723V31.88H96.9823C97.1723 31.7 97.3623 31.46 97.5023 31.09C97.6223 30.77 97.7323 30.26 97.7323 29.23V27.45ZM108.231 26.33H104.531V33H108.231V31.88H105.831V30.06H108.131V28.94H105.831V27.45H108.231V26.33ZM112.132 26.33V30.15C112.132 30.78 112.142 31.36 111.802 31.7C111.692 31.81 111.502 31.94 111.202 31.94C111.062 31.94 110.932 31.91 110.832 31.88V33C111.012 33.04 111.192 33.06 111.382 33.06C112.032 33.06 112.452 32.84 112.712 32.62C113.452 32.01 113.432 31.1 113.432 30.41V27.45H115.372V33H116.672V26.33H112.132Z" fill="white"/>
<g opacity="0.7">
<rect x="156" width="1" height="9" fill="white"/>
<rect x="152" y="5" width="1" height="9" transform="rotate(-90 152 5)" fill="white"/>
</g>
</svg>
