<svg width="15" height="16" viewBox="0 0 15 16" fill="none" xmlns="http://www.w3.org/2000/svg">
<path d="M14.0264 8.00245C14.0264 9.30783 13.6393 10.5839 12.9141 11.6693C12.1888 12.7547 11.158 13.6006 9.95203 14.1002C8.74602 14.5997 7.41896 14.7304 6.13867 14.4757C4.85837 14.2211 3.68234 13.5925 2.7593 12.6694C1.83626 11.7464 1.20766 10.5704 0.952995 9.29007C0.698328 8.00977 0.829029 6.68271 1.32858 5.4767C1.82812 4.27069 2.67408 3.23989 3.75946 2.51466C4.84484 1.78943 6.12091 1.40234 7.42628 1.40234C9.17674 1.40234 10.8555 2.09771 12.0933 3.33547C13.331 4.57323 14.0264 6.25199 14.0264 8.00245Z" stroke="white" stroke-width="1.6" stroke-miterlimit="10"/>
</svg>
