<svg width="74" height="16" viewBox="0 0 74 16" fill="none" xmlns="http://www.w3.org/2000/svg">
<path d="M41.7974 1.40234V14.5974" stroke="white" stroke-width="1.6" stroke-miterlimit="10"/>
<path d="M0.807617 1.40234V14.5974" stroke="white" stroke-width="1.6" stroke-miterlimit="10"/>
<path d="M73.0264 8.00245C73.0264 9.30783 72.6393 10.5839 71.9141 11.6693C71.1888 12.7547 70.158 13.6006 68.952 14.1002C67.746 14.5997 66.419 14.7304 65.1387 14.4757C63.8584 14.2211 62.6823 13.5925 61.7593 12.6694C60.8363 11.7464 60.2077 10.5704 59.953 9.29007C59.6983 8.00977 59.829 6.68271 60.3286 5.4767C60.8281 4.27069 61.6741 3.23989 62.7595 2.51466C63.8448 1.78943 65.1209 1.40234 66.4263 1.40234C68.1767 1.40234 69.8555 2.09771 71.0933 3.33547C72.331 4.57323 73.0264 6.25199 73.0264 8.00245Z" stroke="white" stroke-width="1.6" stroke-miterlimit="10"/>
<path d="M21.2119 6.42725C22.018 6.42725 22.8061 6.66636 23.4762 7.11432C24.1464 7.56228 24.6687 8.19897 24.977 8.94383C25.2852 9.68869 25.3656 10.5082 25.208 11.2988C25.0503 12.0894 24.6617 12.8154 24.0913 13.385C23.521 13.9547 22.7944 14.3424 22.0037 14.499C21.2129 14.6556 20.3935 14.5742 19.649 14.265C18.9045 13.9558 18.2685 13.4327 17.8214 12.762C17.3743 12.0912 17.1362 11.3029 17.1372 10.4968" stroke="white" stroke-width="1.6" stroke-miterlimit="10"/>
<path d="M21.2121 6.42721C20.5698 6.42721 19.9537 6.17203 19.4995 5.7178C19.0452 5.26356 18.79 4.64749 18.79 4.00511C18.79 3.36273 19.0452 2.74666 19.4995 2.29243C19.9537 1.83819 20.5698 1.58301 21.2121 1.58301" stroke="white" stroke-width="1.6" stroke-miterlimit="10"/>
<path d="M45.8721 1.58301H37.7227" stroke="white" stroke-width="1.6" stroke-miterlimit="10" stroke-linecap="square"/>
</svg>
