<svg width="216" height="309" viewBox="0 0 216 309" fill="none" xmlns="http://www.w3.org/2000/svg">
<path d="M56.7032 76.9773C34.2767 36.9734 59.1274 7.87957 81.5538 0C61.5519 0 -0.707123 16.3653 0.939777 73.9467C2.15328 116.375 56.7028 144.863 92.464 169.714C128.225 194.565 163.38 204.869 169.441 251.54C174.29 288.877 147.621 304.879 134.893 308.515C181.928 304.151 204.597 280.028 210.052 265.481C220.962 241.236 223.386 195.171 158.531 152.136C109.761 119.775 73.0684 99.4038 56.7032 76.9773Z" fill="#764741"/>
<path d="M7.00244 285.483V214.566C23.9738 282.452 67.8165 304.272 87.6165 307.303C59.1288 309.121 21.7514 294.574 7.00244 285.483Z" fill="#764741"/>
</svg>
