<svg width="281" height="303" viewBox="0 0 281 303" fill="none" xmlns="http://www.w3.org/2000/svg">
<path d="M93.8463 0.599974H6.00625L0.726251 89.4H5.04625C14.1663 54.84 30.9663 26.52 53.5263 15C66.4863 8.27999 79.9263 4.91998 93.8463 4.43998V0.599974ZM186.966 4.43998C200.886 4.91998 214.326 8.27999 227.286 15C249.846 26.52 266.646 54.84 275.766 89.4H280.086L274.806 0.599974H186.966V4.43998ZM163.926 0.599974H116.886V243.48C116.886 283.8 106.806 295.32 74.1663 299.16V303H206.646V299.16C174.006 295.32 163.926 283.8 163.926 243.48V0.599974Z" fill="#8E8057"/>
</svg>
