<svg width="31" height="30" viewBox="0 0 31 30" fill="none" xmlns="http://www.w3.org/2000/svg">
<path d="M14.7808 11.4909C16.0053 11.4618 17.2232 11.6779 18.363 12.1265C19.5027 12.575 20.5413 13.2469 21.4176 14.1027C22.2939 14.9584 22.9903 15.9808 23.4657 17.1096C23.9411 18.2384 24.186 19.4509 24.186 20.6757C24.186 21.9006 23.9411 23.1131 23.4657 24.2419C22.9903 25.3707 22.2939 26.3931 21.4176 27.2488C20.5413 28.1046 19.5027 28.7765 18.363 29.225C17.2232 29.6736 16.0053 29.8897 14.7808 29.8606" stroke="white" stroke-width="0.5" stroke-miterlimit="10"/>
<path d="M14.7804 11.4752C14.0039 11.5277 13.2249 11.42 12.4918 11.1589C11.7586 10.8978 11.0869 10.4888 10.5184 9.95739C9.94982 9.42594 9.49653 8.78333 9.18662 8.06943C8.87671 7.35553 8.7168 6.58557 8.7168 5.8073C8.7168 5.02904 8.87671 4.25908 9.18662 3.54518C9.49653 2.83128 9.94982 2.18867 10.5184 1.65722C11.0869 1.12576 11.7586 0.716803 12.4918 0.455704C13.2249 0.194604 14.0039 0.0869355 14.7804 0.139376" stroke="white" stroke-width="0.5" stroke-miterlimit="10"/>
<path d="M29.871 15.0034C29.871 17.9453 28.9985 20.8211 27.364 23.2672C25.7294 25.7132 23.4062 27.6196 20.6881 28.7452C17.9701 29.8707 14.9792 30.165 12.0939 29.5907C9.20862 29.0164 6.55843 27.5993 4.47854 25.5187C2.39866 23.4381 0.982503 20.7874 0.40919 17.9019C-0.164122 15.0164 0.131159 12.0256 1.25769 9.30795C2.38422 6.59027 4.29139 4.2677 6.738 2.63401C9.18461 1.00031 12.0607 0.128862 15.0027 0.129884C16.9556 0.129884 18.8895 0.514635 20.6937 1.26216C22.498 2.00969 24.1373 3.10534 25.518 4.48654C26.8987 5.86773 27.9938 7.50741 28.7407 9.31192C29.4876 11.1164 29.8716 13.0504 29.871 15.0034V15.0034Z" stroke="white" stroke-width="0.5" stroke-miterlimit="10"/>
<path d="M14.7808 0.13916V29.8706" stroke="white" stroke-width="0.5" stroke-miterlimit="10"/>
<path d="M23.9678 20.6782H1.43555" stroke="white" stroke-width="0.5" stroke-miterlimit="10"/>
</svg>
