<svg width="216" height="309" viewBox="0 0 216 309" fill="none" xmlns="http://www.w3.org/2000/svg">
<path d="M55.7954 76.9773C33.369 36.9734 58.2196 7.87957 80.6461 0C60.6441 0 -1.61484 16.3653 0.0320622 73.9467C1.24557 116.375 55.7951 144.863 91.5562 169.714C127.317 194.565 162.472 204.869 168.534 251.54C173.383 288.877 146.714 304.879 133.985 308.515C181.02 304.151 203.689 280.028 209.144 265.481C220.054 241.236 222.479 195.171 157.624 152.136C108.853 119.775 72.1607 99.4038 55.7954 76.9773Z" fill="#764741"/>
<path d="M6.09473 285.483V214.566C23.0661 282.452 66.9088 304.272 86.7088 307.303C58.2211 309.121 20.8437 294.574 6.09473 285.483Z" fill="#764741"/>
</svg>
